#!OML:ASF F:\VICON\USERDATA\INSTALL\rory3\rory3.ASF
:FULLY-SPECIFIED
:DEGREES
1
root -0.55638 18.1838 -1.65846 178.937 -3.0546 179.444
lowerback 23.8383 -0.0007328 -0.399235
upperback 3.01843 -0.45758 5.6715
thorax -9.93156 -0.478141 6.80858
lowerneck -8.6605 -5.18336 -5.90882
upperneck 28.0338 -1.34289 -7.68324
head 10.4838 -1.14274 -1.71696
rclavicle -1.86858e-014 -4.29375e-014
rhumerus -31.0531 -60.1316 -21.7307
rradius 69.8481
rwrist -38.9372
rhand 4.12649 -0.607646
rfingers 7.12502
rthumb 29.5365 -28.2779
lclavicle -1.86858e-014 -4.29375e-014
lhumerus -45.1697 5.20742 82.9229
lradius 58.3144
lwrist 10.3423
lhand -10.6804 51.8658
lfingers 7.12502
lthumb 15.3284 81.2777
rfemur -14.8973 1.36615 20.5171
rtibia 34.3523
rfoot -12.2875 -14.7369
rtoes 2.44261
lfemur -13.3831 -3.53639 -17.4183
ltibia 35.3049
lfoot -16.3386 -2.57162
ltoes -23.7413
2
root -0.578627 18.2017 -1.6095 178.818 -2.40799 179.368
lowerback 24.3334 0.00637775 -0.272199
upperback 3.36345 -0.50791 5.7265
thorax -9.79926 -0.553904 6.82608
lowerneck -9.34897 -4.92131 -6.19996
upperneck 28.038 -0.912157 -7.63054
head 10.6388 -1.00697 -1.61701
rclavicle -4.77083e-015 -1.43125e-014
rhumerus -27.5375 -60.0108 -25.4449
rradius 71.5514
rwrist -35.9851
rhand 4.53846 -0.130289
rfingers 7.12502
rthumb 29.9296 -27.7303
lclavicle -4.77083e-015 -1.43125e-014
lhumerus -45.0621 5.63545 82.9835
lradius 58.9612
lwrist 11.0014
lhand -11.1862 51.6343
lfingers 7.12502
lthumb 14.8411 81.0828
rfemur -14.9422 1.62469 20.3444
rtibia 34.1559
rfoot -11.8502 -14.3637
rtoes 1.83984
lfemur -12.9392 -3.5233 -17.3631
ltibia 35.294
lfoot -16.1489 -1.86041
ltoes -23.4183
3
root -0.612033 18.2035 -1.56238 178.818 -1.87828 178.924
lowerback 24.4633 0.0268712 -0.427362
upperback 3.65141 -0.593349 5.6418
thorax -9.53291 -0.623841 6.84113
lowerneck -9.6881 -4.74743 -5.96354
upperneck 27.7936 -0.632089 -8.06338
head 10.6128 -0.919296 -1.78257
rclavicle 8.34896e-015 -3.02153e-014
rhumerus -25.0877 -58.9483 -28.3679
rradius 73.6996
rwrist -33.2291
rhand 4.18657 0.236858
rfingers 7.12502
rthumb 29.5938 -27.4232
lclavicle 8.34896e-015 -3.02153e-014
lhumerus -45.06 5.67281 83.1043
lradius 59.58
lwrist 11.7812
lhand -11.3719 52.7152
lfingers 7.12502
lthumb 14.6622 82.1768
rfemur -15.2942 1.37398 19.6946
rtibia 34.3838
rfoot -11.7123 -13.6042
rtoes 1.31124
lfemur -12.6806 -3.61863 -17.783
ltibia 35.5141
lfoot -15.7913 -1.16894
ltoes -21.6855
4
root -0.6464 18.1974 -1.51535 178.802 -1.36994 178.437
lowerback 24.5454 0.026181 -0.638848
upperback 3.8173 -0.693391 5.5425
thorax -9.37707 -0.68418 6.88026
lowerneck -9.7127 -4.48755 -6.00176
upperneck 27.8346 -0.218032 -8.09875
head 10.643 -0.734938 -1.74018
rclavicle -1.19271e-015 -2.54444e-014
rhumerus -23.7914 -56.2667 -30.5547
rradius 76.6501
rwrist -31.7931
rhand 4.90041 0.411763
rfingers 7.12502
rthumb 30.275 -27.1254
lclavicle -1.19271e-015 -2.54444e-014
lhumerus -45.2682 5.60267 83.2252
lradius 60.1082
lwrist 12.4624
lhand -12.1411 51.8719
lfingers 7.12502
lthumb 13.921 81.3859
rfemur -15.574 1.01782 18.9869
rtibia 34.4756
rfoot -11.5807 -12.7809
rtoes 1.12445
lfemur -12.4007 -3.75608 -18.2627
ltibia 35.8086
lfoot -15.5906 -0.239667
ltoes -20.5431
5
root -0.678302 18.2043 -1.45951 178.849 -0.864053 178.194
lowerback 24.9016 -0.00514542 -0.578265
upperback 3.7879 -0.726607 5.46461
thorax -9.59452 -0.70021 6.78801
lowerneck -9.37415 -4.2837 -5.99418
upperneck 27.6795 0.0677915 -8.19548
head 10.5239 -0.594243 -1.73194
rclavicle 1.90833e-014 -4.13472e-014
rhumerus -21.8693 -55.298 -32.9533
rradius 78.4102
rwrist -29.114
rhand 5.86416 0.911805
rfingers 7.12502
rthumb 31.1939 -26.4525
lclavicle 1.90833e-014 -4.13472e-014
lhumerus -45.5443 5.43483 83.2946
lradius 60.4176
lwrist 12.9805
lhand -12.3348 51.7859
lfingers 7.12502
lthumb 13.7344 81.3126
rfemur -15.9526 1.00844 18.5845
rtibia 34.5892
rfoot -11.4782 -12.3241
rtoes 2.1349
lfemur -12.2884 -3.82562 -18.4468
ltibia 36.2307
lfoot -15.4173 0.709422
ltoes -20.4748
6
root -0.699996 18.2068 -1.40118 178.813 -0.131355 178.294
lowerback 25.3982 0.0807238 -0.443563
upperback 3.85611 -0.612633 5.50086
thorax -9.79142 -0.665459 6.73997
lowerneck -9.41407 -4.14658 -5.93222
upperneck 27.6061 0.219763 -8.19369
head 10.5051 -0.52582 -1.72419
rclavicle -3.97569e-015 6.36111e-014
rhumerus -20.2016 -54.0135 -35.2545
rradius 80.3836
rwrist -26.0645
rhand 7.17492 1.69915
rfingers 7.12502
rthumb 32.4422 -25.4171
lclavicle -3.97569e-015 6.36111e-014
lhumerus -45.5931 5.22772 83.3449
lradius 60.583
lwrist 13.4248
lhand -12.3179 52.0687
lfingers 7.12502
lthumb 13.7506 81.5943
rfemur -16.3053 1.30362 18.6419
rtibia 34.6985
rfoot -11.5787 -11.9452
rtoes 5.41292
lfemur -12.1921 -3.65464 -18.1848
ltibia 36.766
lfoot -14.9832 1.43529
ltoes -19.6618
7
root -0.722306 18.2042 -1.34703 178.758 0.700414 178.392
lowerback 25.8291 -1.216 -1.04948
upperback 4.08263 -0.0810735 5.46222
thorax -9.80651 0.590056 6.71296
lowerneck -9.31955 -3.99049 -5.55226
upperneck 27.7756 0.61906 -8.78171
head 10.5575 -0.346279 -1.9518
rclavicle 6.36111e-015 -1.59028e-014
rhumerus -18.9479 -52.0342 -37.3237
rradius 82.5419
rwrist -22.9299
rhand 7.5432 2.3289
rfingers 7.12502
rthumb 32.7926 -24.7148
lclavicle 6.36111e-015 -1.59028e-014
lhumerus -45.7064 4.94574 83.4678
lradius 60.7396
lwrist 13.769
lhand -12.2786 52.3913
lfingers 7.12502
lthumb 13.7885 81.9143
rfemur -16.6503 1.62659 18.7029
rtibia 34.7809
rfoot -11.5738 -11.5008
rtoes 7.01609
lfemur -12.0172 -3.49161 -17.9448
ltibia 37.3171
lfoot -14.4404 2.23475
ltoes -18.5439
8
root -0.761123 18.1954 -1.29719 178.791 1.39652 178.104
lowerback 26.0094 -1.19179 -1.11601
upperback 4.27553 -0.0635431 5.33854
thorax -9.68244 0.600117 6.60236
lowerneck -9.59372 -3.80206 -5.19538
upperneck 27.8248 0.969398 -9.20318
head 10.6381 -0.204275 -2.12849
rclavicle -2.38542e-015 -4.6118e-014
rhumerus -17.4206 -49.6762 -39.7848
rradius 84.6329
rwrist -20.3492
rhand 3.78531 2.09003
rfingers 7.12502
rthumb 29.2107 -25.6373
lclavicle -2.38542e-015 -4.6118e-014
lhumerus -45.4024 4.70128 83.5951
lradius 60.5429
lwrist 13.7862
lhand -12.1115 52.4395
lfingers 7.12502
lthumb 13.9495 81.9515
rfemur -17.063 1.50823 18.2317
rtibia 34.9365
rfoot -11.1628 -10.7255
rtoes 3.90064
lfemur -11.8267 -3.5365 -18.2332
ltibia 37.8587
lfoot -13.9053 2.93487
ltoes -17.8172
9
root -0.800637 18.1891 -1.24954 178.823 1.99113 177.812
lowerback 25.8591 -1.1821 -1.13192
upperback 4.52824 -0.0581327 5.21608
thorax -9.31895 0.596351 6.45386
lowerneck -9.33549 -3.64121 -4.97353
upperneck 27.4306 1.09821 -9.39474
head 10.4398 -0.134492 -2.20823
rclavicle 1.43125e-014 -5.88403e-014
rhumerus -16.3001 -47.0851 -41.8549
rradius 86.6841
rwrist -18.2591
rhand 3.60703 2.20863
rfingers 7.12502
rthumb 29.0405 -25.5482
lclavicle 1.43125e-014 -5.88403e-014
lhumerus -45.028 4.34214 83.7939
lradius 60.3802
lwrist 13.5912
lhand -11.7889 52.5174
lfingers 7.12502
lthumb 14.2604 82.0078
rfemur -17.4393 1.3995 17.7566
rtibia 35.1232
rfoot -11.2352 -9.97942
rtoes 5.57283
lfemur -11.6164 -3.59951 -18.5137
ltibia 38.3723
lfoot -13.3924 3.35755
ltoes -16.9899
